<svg width="24" height="24" viewBox="0 0 24 24" fill="none" xmlns="http://www.w3.org/2000/svg">
<g clip-path="url(#clip0_32_2937)">
<path d="M11.203 24H1.51701C1.44525 23.9998 1.37514 23.9785 1.31548 23.9386C1.25582 23.8987 1.20928 23.8421 1.18171 23.7758C1.15414 23.7096 1.14677 23.6367 1.16052 23.5662C1.17428 23.4958 1.20854 23.431 1.25901 23.38L7.49801 17.105C7.53196 17.0708 7.57231 17.0437 7.61675 17.0252C7.66119 17.0067 7.70886 16.9971 7.75701 16.997H11.277C14 16.997 16.302 14.87 16.384 12.152C16.4033 11.4833 16.2882 10.8175 16.0457 10.194C15.8032 9.57046 15.4381 9.00193 14.972 8.52197C14.506 8.04202 13.9484 7.66039 13.3323 7.39966C12.7162 7.13893 12.054 7.00439 11.385 7.004H7.61301V11.65C7.61301 11.85 7.44901 12.014 7.24801 12.014H0.968011C0.871727 12.0135 0.779551 11.9749 0.711561 11.9067C0.64357 11.8386 0.605273 11.7463 0.605011 11.65V0.364C0.605011 0.164 0.768011 0 0.969011 0H11.385C18.069 0 23.496 5.485 23.395 12.187C23.293 18.77 17.795 24 11.203 24Z" fill="currentColor"/>
</g>
<defs>
<clipPath id="clip0_32_2937">
<rect width="24" height="24" fill="white"/>
</clipPath>
</defs>
</svg>
